{
  "accessors": [
    {
      "bufferView": 3,
      "componentType": 5126,
      "count": 1289,
      "max": [
        1472.3629150390625,
        1888.7374267578125,
        828.8692626953125
      ],
      "min": [
        -1455.9281005859375,
        -603.909423828125,
        -888.135986328125
      ],
      "type": "VEC3"
    },
    {
      "bufferView": 3,
      "byteOffset": 15468,
      "componentType": 5126,
      "count": 1289,
      "max": [
        1.0,
        1.0,
        0.9999662637710571
      ],
      "min": [
        -1.0,
        -1.0,
        -0.9999662637710571
      ],
      "type": "VEC3"
    },
    {
      "bufferView": 2,
      "componentType": 5126,
      "count": 1289,
      "max": [
        0.8928571343421936,
        1.0
      ],
      "min": [
        -0.1071428656578064,
        0.0
      ],
      "type": "VEC2"
    },
    {
      "bufferView": 2,
      "byteOffset": 10312,
      "componentType": 5126,
      "count": 1289,
      "max": [
        146.91455078125,
        81.04812622070313
      ],
      "min": [
        -145.91455078125,
        -90.65239715576172
      ],
      "type": "VEC2"
    },
    {
      "bufferView": 1,
      "componentType": 5125,
      "count": 1446,
      "type": "SCALAR"
    },
    {
      "bufferView": 3,
      "byteOffset": 30936,
      "componentType": 5126,
      "count": 118,
      "max": [
        405.4939880371094,
        1340.3275146484375,
        744.1376342773438
      ],
      "min": [
        234.5294647216797,
        968.8699340820313,
        625.61474609375
      ],
      "type": "VEC3"
    },
    {
      "bufferView": 3,
      "byteOffset": 32352,
      "componentType": 5126,
      "count": 118,
      "max": [
        0.9426462650299072,
        0.9534150958061218,
        0.9531748294830322
      ],
      "min": [
        -0.8998571634292603,
        -0.8355217576026917,
        -0.44583362340927124
      ],
      "type": "VEC3"
    },
    {
      "bufferView": 2,
      "byteOffset": 20624,
      "componentType": 5126,
      "count": 118,
      "max": [
        0.8928571343421936,
        1.0
      ],
      "min": [
        -0.1071428656578064,
        0.0
      ],
      "type": "VEC2"
    },
    {
      "bufferView": 2,
      "byteOffset": 21568,
      "componentType": 5126,
      "count": 118,
      "max": [
        40.227638244628906,
        -70.32695770263672
      ],
      "min": [
        23.13118553161621,
        -82.17924499511719
      ],
      "type": "VEC2"
    },
    {
      "bufferView": 1,
      "byteOffset": 5784,
      "componentType": 5125,
      "count": 120,
      "type": "SCALAR"
    },
    {
      "bufferView": 3,
      "byteOffset": 33768,
      "componentType": 5126,
      "count": 48,
      "max": [
        245.27027893066406,
        1274.2755126953125,
        809.3355712890625
      ],
      "min": [
        45.19129943847656,
        996.8615112304688,
        679.60498046875
      ],
      "type": "VEC3"
    },
    {
      "bufferView": 3,
      "byteOffset": 34344,
      "componentType": 5126,
      "count": 48,
      "max": [
        0.9975281357765198,
        0.9230217337608337,
        0.9327240586280823
      ],
      "min": [
        -0.997528076171875,
        -0.9230217337608337,
        -0.2953946888446808
      ],
      "type": "VEC3"
    },
    {
      "bufferView": 2,
      "byteOffset": 22512,
      "componentType": 5126,
      "count": 48,
      "max": [
        1.0,
        1.0
      ],
      "min": [
        0.0,
        0.0
      ],
      "type": "VEC2"
    },
    {
      "bufferView": 2,
      "byteOffset": 22896,
      "componentType": 5126,
      "count": 48,
      "max": [
        24.20526695251465,
        -75.72598266601563
      ],
      "min": [
        4.197368144989014,
        -88.69902801513672
      ],
      "type": "VEC2"
    },
    {
      "bufferView": 1,
      "byteOffset": 6264,
      "componentType": 5125,
      "count": 48,
      "type": "SCALAR"
    },
    {
      "bufferView": 3,
      "byteOffset": 34920,
      "componentType": 5126,
      "count": 556,
      "max": [
        951.926025390625,
        951.0565185546875,
        754.087646484375
      ],
      "min": [
        -951.926025390625,
        -877.954833984375,
        -1189.047607421875
      ],
      "type": "VEC3"
    },
    {
      "bufferView": 3,
      "byteOffset": 41592,
      "componentType": 5126,
      "count": 556,
      "max": [
        1.0,
        0.9510583877563477,
        1.0
      ],
      "min": [
        -1.0,
        -0.9528111219406128,
        -1.0
      ],
      "type": "VEC3"
    },
    {
      "bufferView": 2,
      "byteOffset": 23280,
      "componentType": 5126,
      "count": 556,
      "max": [
        0.75,
        1.0
      ],
      "min": [
        -0.1071428656578064,
        0.19999998807907104
      ],
      "type": "VEC2"
    },
    {
      "bufferView": 1,
      "byteOffset": 6456,
      "componentType": 5125,
      "count": 633,
      "type": "SCALAR"
    },
    {
      "bufferView": 3,
      "byteOffset": 48264,
      "componentType": 5126,
      "count": 78,
      "max": [
        930.8116455078125,
        -173.84747314453125,
        461.66326904296875
      ],
      "min": [
        -930.8116455078125,
        -917.2286376953125,
        -591.7315673828125
      ],
      "type": "VEC3"
    },
    {
      "bufferView": 3,
      "byteOffset": 49200,
      "componentType": 5126,
      "count": 78,
      "max": [
        0.9061728715896606,
        -0.4055140018463135,
        0.485006719827652
      ],
      "min": [
        -0.9061728715896606,
        -0.9867013096809387,
        -0.22256040573120117
      ],
      "type": "VEC3"
    },
    {
      "bufferView": 2,
      "byteOffset": 27728,
      "componentType": 5126,
      "count": 78,
      "max": [
        0.5,
        0.6000000238418579
      ],
      "min": [
        0.29999998211860657,
        0.40000003576278687
      ],
      "type": "VEC2"
    },
    {
      "bufferView": 1,
      "byteOffset": 8988,
      "componentType": 5125,
      "count": 102,
      "type": "SCALAR"
    },
    {
      "bufferView": 3,
      "byteOffset": 50136,
      "componentType": 5126,
      "count": 57,
      "max": [
        494.72259521484375,
        -721.9771728515625,
        -898.75244140625
      ],
      "min": [
        326.39520263671875,
        -809.8735961914063,
        -1095.03173828125
      ],
      "type": "VEC3"
    },
    {
      "bufferView": 3,
      "byteOffset": 50820,
      "componentType": 5126,
      "count": 57,
      "max": [
        0.9235066175460815,
        0.3381195664405823,
        0.999997615814209
      ],
      "min": [
        -0.9232463836669922,
        -0.9510545134544373,
        -0.8586866855621338
      ],
      "type": "VEC3"
    },
    {
      "bufferView": 2,
      "byteOffset": 28352,
      "componentType": 5126,
      "count": 57,
      "max": [
        0.8928571343421936,
        1.0
      ],
      "min": [
        -0.1071428656578064,
        1.0
      ],
      "type": "VEC2"
    },
    {
      "bufferView": 1,
      "byteOffset": 9396,
      "componentType": 5125,
      "count": 57,
      "type": "SCALAR"
    },
    {
      "bufferView": 3,
      "byteOffset": 51504,
      "componentType": 5126,
      "count": 57,
      "max": [
        226.76889038085938,
        -809.0414428710938,
        -898.620361328125
      ],
      "min": [
        58.44146728515625,
        -896.9379272460938,
        -1094.899658203125
      ],
      "type": "VEC3"
    },
    {
      "bufferView": 3,
      "byteOffset": 52188,
      "componentType": 5126,
      "count": 57,
      "max": [
        0.9235067963600159,
        0.33811992406845093,
        0.999997615814209
      ],
      "min": [
        -0.9232460260391235,
        -0.9510546922683716,
        -0.8586865663528442
      ],
      "type": "VEC3"
    },
    {
      "bufferView": 2,
      "byteOffset": 28808,
      "componentType": 5126,
      "count": 57,
      "max": [
        0.8928571343421936,
        1.0
      ],
      "min": [
        -0.1071428656578064,
        1.0
      ],
      "type": "VEC2"
    },
    {
      "bufferView": 1,
      "byteOffset": 9624,
      "componentType": 5125,
      "count": 57,
      "type": "SCALAR"
    },
    {
      "bufferView": 5,
      "componentType": 5126,
      "count": 14,
      "max": [
        1.0,
        0.0014337083557620645,
        0.15292012691497803,
        0.0,
        0.3262542486190796,
        1.0,
        0.0525849275290966,
        0.0,
        0.00903280172497034,
        0.2633277177810669,
        1.0,
        0.0,
        128.61119079589844,
        488.3378601074219,
        9.960523129848298e-06,
        1.0
      ],
      "min": [
        -0.2568206489086151,
        -0.3262542486190796,
        -0.32306280732154846,
        0.0,
        -0.4320150911808014,
        -0.3262479603290558,
        -0.00022626857389695942,
        0.0,
        -0.02071506343781948,
        -0.12464480847120285,
        -0.00011529141920618713,
        0.0,
        -405.54571533203125,
        -488.3728332519531,
        -151.77638244628906,
        1.0
      ],
      "type": "MAT4"
    },
    {
      "bufferView": 0,
      "componentType": 5123,
      "count": 1289,
      "type": "VEC4"
    },
    {
      "bufferView": 4,
      "componentType": 5126,
      "count": 1289,
      "max": [
        1.0,
        0.49468082189559937,
        0.0,
        0.0
      ],
      "min": [
        0.5053191781044006,
        0.0,
        0.0,
        0.0
      ],
      "type": "VEC4"
    },
    {
      "bufferView": 0,
      "byteOffset": 10312,
      "componentType": 5123,
      "count": 118,
      "type": "VEC4"
    },
    {
      "bufferView": 4,
      "byteOffset": 20624,
      "componentType": 5126,
      "count": 118,
      "max": [
        0.8213134407997131,
        0.3115885853767395,
        0.0,
        0.0
      ],
      "min": [
        0.6884114146232605,
        0.17868654429912567,
        0.0,
        0.0
      ],
      "type": "VEC4"
    },
    {
      "bufferView": 0,
      "byteOffset": 11256,
      "componentType": 5123,
      "count": 48,
      "type": "VEC4"
    },
    {
      "bufferView": 4,
      "byteOffset": 22512,
      "componentType": 5126,
      "count": 48,
      "max": [
        0.7658292651176453,
        0.36964091658592224,
        0.0,
        0.0
      ],
      "min": [
        0.6303591132164001,
        0.23417071998119354,
        0.0,
        0.0
      ],
      "type": "VEC4"
    }
  ],
  "asset": {
    "extras": {
      "author": "Jorge (https://sketchfab.com/J0rge)",
      "license": "CC-BY-4.0 (http://creativecommons.org/licenses/by/4.0/)",
      "source": "https://sketchfab.com/3d-models/chibi-space-man-7bb6cf2695ff418f8535de0e0c86f8cd",
      "title": "Chibi Space Man"
    },
    "generator": "Sketchfab-12.64.0",
    "version": "2.0"
  },
  "bufferViews": [
    {
      "buffer": 0,
      "byteLength": 11640,
      "byteStride": 8,
      "name": "shortBufferViews",
      "target": 34962
    },
    {
      "buffer": 0,
      "byteLength": 9852,
      "byteOffset": 11640,
      "name": "floatBufferViews",
      "target": 34963
    },
    {
      "buffer": 0,
      "byteLength": 29264,
      "byteOffset": 21492,
      "byteStride": 8,
      "name": "floatBufferViews",
      "target": 34962
    },
    {
      "buffer": 0,
      "byteLength": 52872,
      "byteOffset": 50756,
      "byteStride": 12,
      "name": "floatBufferViews",
      "target": 34962
    },
    {
      "buffer": 0,
      "byteLength": 23280,
      "byteOffset": 103628,
      "byteStride": 16,
      "name": "floatBufferViews",
      "target": 34962
    },
    {
      "buffer": 0,
      "byteLength": 896,
      "byteOffset": 126908,
      "name": "floatBufferViews"
    }
  ],
  "buffers": [
    {
      "byteLength": 127804,
      "uri": "scene.bin"
    }
  ],
  "materials": [
    {
      "doubleSided": true,
      "name": "Material_36",
      "pbrMetallicRoughness": {
        "metallicFactor": 0.0,
        "roughnessFactor": 0.8929713596
      }
    },
    {
      "doubleSided": true,
      "emissiveFactor": [
        0.0,
        0.013388375885072357,
        1.0
      ],
      "name": "Material_39",
      "pbrMetallicRoughness": {
        "baseColorFactor": [
          0.0193140176,
          0.3187986543,
          0.8556051858,
          1.0
        ],
        "roughnessFactor": 0.8929713596
      }
    },
    {
      "doubleSided": true,
      "emissiveFactor": [
        1.0,
        0.0,
        0.0
      ],
      "name": "Material_38",
      "pbrMetallicRoughness": {
        "baseColorFactor": [
          1.0,
          0.0,
          0.0,
          1.0
        ],
        "roughnessFactor": 0.6995045732
      }
    },
    {
      "doubleSided": true,
      "name": "Material_37",
      "pbrMetallicRoughness": {
        "baseColorFactor": [
          0.0,
          0.0,
          0.0,
          1.0
        ],
        "metallicFactor": 0.8004954268,
        "roughnessFactor": 0.8929713596
      }
    }
  ],
  "meshes": [
    {
      "name": "SpaceManDetails_001_Material #36_0",
      "primitives": [
        {
          "attributes": {
            "JOINTS_0": 32,
            "NORMAL": 1,
            "POSITION": 0,
            "TEXCOORD_0": 2,
            "TEXCOORD_1": 3,
            "WEIGHTS_0": 33
          },
          "indices": 4,
          "material": 0,
          "mode": 4
        }
      ]
    },
    {
      "name": "SpaceManDetails_001_Material #39_0",
      "primitives": [
        {
          "attributes": {
            "JOINTS_0": 34,
            "NORMAL": 6,
            "POSITION": 5,
            "TEXCOORD_0": 7,
            "TEXCOORD_1": 8,
            "WEIGHTS_0": 35
          },
          "indices": 9,
          "material": 1,
          "mode": 4
        }
      ]
    },
    {
      "name": "SpaceManDetails_001_Material #38_0",
      "primitives": [
        {
          "attributes": {
            "JOINTS_0": 36,
            "NORMAL": 11,
            "POSITION": 10,
            "TEXCOORD_0": 12,
            "TEXCOORD_1": 13,
            "WEIGHTS_0": 37
          },
          "indices": 14,
          "material": 2,
          "mode": 4
        }
      ]
    },
    {
      "name": "Helmet_Material #36_0",
      "primitives": [
        {
          "attributes": {
            "NORMAL": 16,
            "POSITION": 15,
            "TEXCOORD_0": 17
          },
          "indices": 18,
          "material": 0,
          "mode": 4
        }
      ]
    },
    {
      "name": "Helmet_Material #37_0",
      "primitives": [
        {
          "attributes": {
            "NORMAL": 20,
            "POSITION": 19,
            "TEXCOORD_0": 21
          },
          "indices": 22,
          "material": 3,
          "mode": 4
        }
      ]
    },
    {
      "name": "Helmet_Material #38_0",
      "primitives": [
        {
          "attributes": {
            "NORMAL": 24,
            "POSITION": 23,
            "TEXCOORD_0": 25
          },
          "indices": 26,
          "material": 2,
          "mode": 4
        }
      ]
    },
    {
      "name": "Helmet_Material #39_0",
      "primitives": [
        {
          "attributes": {
            "NORMAL": 28,
            "POSITION": 27,
            "TEXCOORD_0": 29
          },
          "indices": 30,
          "material": 1,
          "mode": 4
        }
      ]
    }
  ],
  "nodes": [
    {
      "children": [
        1
      ],
      "matrix": [
        0.001181004336103797,
        0.0,
        0.0,
        0.0,
        0.0,
        2.622356412249165e-19,
        -0.001181004336103797,
        0.0,
        0.0,
        0.001181004336103797,
        2.622356412249165e-19,
        0.0,
        0.0,
        0.0,
        0.0,
        1.0
      ],
      "name": "Sketchfab_model"
    },
    {
      "children": [
        2
      ],
      "matrix": [
        1.0,
        0.0,
        0.0,
        0.0,
        0.0,
        0.0,
        1.0,
        0.0,
        0.0,
        -1.0,
        0.0,
        0.0,
        0.0,
        0.0,
        0.0,
        1.0
      ],
      "name": "20b74173073946ec8322dc8a2f38253f.fbx"
    },
    {
      "children": [
        3
      ],
      "name": "RootNode"
    },
    {
      "children": [
        4,
        6,
        7,
        8,
        5
      ],
      "name": "Object_3"
    },
    {
      "children": [
        9
      ],
      "name": "_rootJoint"
    },
    {
      "matrix": [
        0.3262542486190796,
        1.2160476569338372e-24,
        4.3179390275321286e-24,
        0.0,
        4.317938974376997e-24,
        1.4261026141586528e-08,
        -0.32625424861907953,
        0.0,
        -9.817430947548204e-25,
        0.2633924782276153,
        1.1513250887613467e-08,
        0.0,
        2.68096923828125,
        838.9138793945311,
        -21.77061421996438,
        1.0
      ],
      "name": "Object_5"
    },
    {
      "mesh": 0,
      "name": "Object_6",
      "skin": 0
    },
    {
      "mesh": 1,
      "name": "Object_7",
      "skin": 0
    },
    {
      "mesh": 2,
      "name": "Object_8",
      "skin": 0
    },
    {
      "children": [
        10,
        24,
        26
      ],
      "name": "LS_00",
      "rotation": [
        -1.8390071545582032e-06,
        -1.8390071545582032e-06,
        0.7071068286895752,
        0.7071068286895752
      ],
      "translation": [
        0.0,
        178.30718994140625,
        0.0
      ]
    },
    {
      "children": [
        11,
        20,
        22
      ],
      "name": "US_01",
      "rotation": [
        -0.03438134491443634,
        2.7826157378285643e-08,
        -1.490743812837536e-07,
        0.9994087815284729
      ],
      "translation": [
        227.87088012695313,
        -5.3644176659872755e-05,
        -2.4010660126805305e-10
      ]
    },
    {
      "children": [
        12
      ],
      "name": "SN_02",
      "rotation": [
        1.5959455978986625e-14,
        -3.5527141023169746e-15,
        9.313084747830658e-10,
        1.0
      ],
      "translation": [
        147.826416015625,
        -8.583076123613864e-06,
        7.275957614183426e-12
      ]
    },
    {
      "children": [
        13,
        14
      ],
      "name": "Head_03",
      "rotation": [
        0.038571547716856,
        1.7095285187451736e-08,
        -1.236860072140189e-07,
        0.9992558360099792
      ],
      "translation": [
        4.0,
        0.00012874603271484375,
        3.637978807091713e-12
      ]
    },
    {
      "name": "HeadN_04",
      "rotation": [
        3.046174423815273e-14,
        -6.617444900424222e-24,
        8.995589161514176e-24,
        1.0
      ],
      "translation": [
        482.536865234375,
        -1.1921219993382692e-06,
        -1.0913936421275139e-11
      ]
    },
    {
      "children": [
        15
      ],
      "matrix": [
        3.1391644506051364e-07,
        -0.9999999999999507,
        -2.5977484052752686e-14,
        0.0,
        0.999999999999919,
        3.1391644506051364e-07,
        2.51995872090246e-07,
        0.0,
        -2.519958720902254e-07,
        -1.0508313235008578e-13,
        0.9999999999999682,
        0.0,
        -27.07830810546875,
        -2.681102991104126,
        -27.288759231567383,
        1.0
      ],
      "name": "Helmet"
    },
    {
      "children": [
        16,
        17,
        18,
        19
      ],
      "matrix": [
        0.3262542486190796,
        0.0,
        0.0,
        0.0,
        0.0,
        1.997731106397903e-17,
        -0.3262542486190796,
        0.0,
        -0.0,
        0.26339247822761536,
        1.6128137769046903e-17,
        0.0,
        0.0,
        312.66064453125,
        5.5182037353515625,
        1.0
      ],
      "name": "Object_15"
    },
    {
      "mesh": 3,
      "name": "Helmet_Material #36_0"
    },
    {
      "mesh": 4,
      "name": "Helmet_Material #37_0"
    },
    {
      "mesh": 5,
      "name": "Helmet_Material #38_0"
    },
    {
      "mesh": 6,
      "name": "Helmet_Material #39_0"
    },
    {
      "children": [
        21
      ],
      "name": "RA_05",
      "rotation": [
        0.28393569588661194,
        0.11374633759260178,
        0.6676701903343201,
        0.6787185072898865
      ],
      "scale": [
        1.2703460454940796,
        1.0000089406967163,
        1.0
      ],
      "translation": [
        81.43255615234375,
        313.3772888183594,
        0.3182445764541626
      ]
    },
    {
      "name": "RH_06",
      "rotation": [
        5.958898796620815e-08,
        1.170094954261458e-08,
        0.001384722301736474,
        0.9999990463256836
      ],
      "scale": [
        0.8015909790992737,
        0.9999920129776001,
        1.0
      ],
      "translation": [
        131.1182861328125,
        0.519500732421875,
        2.842170943040401e-14
      ]
    },
    {
      "children": [
        23
      ],
      "name": "LA_07",
      "rotation": [
        -0.1375526487827301,
        0.22471293807029724,
        -0.6580232381820679,
        0.7053998112678528
      ],
      "scale": [
        1.2664949893951416,
        1.0000089406967163,
        1.0048719644546509
      ],
      "translation": [
        81.43255615234375,
        -319.4652404785156,
        -0.3184283971786499
      ]
    },
    {
      "name": "LH_08",
      "rotation": [
        -6.212839798536152e-05,
        0.015421642921864986,
        -0.0013713522348552942,
        0.9998801350593567
      ],
      "scale": [
        0.8051319718360901,
        0.9999920129776001,
        0.9971519708633423
      ],
      "translation": [
        130.42086791992188,
        -0.51947021484375,
        -0.4864501953125
      ]
    },
    {
      "children": [
        25
      ],
      "name": "LL_09",
      "rotation": [
        0.07297812402248383,
        -0.7026865482330322,
        0.707066535949707,
        -0.03102809563279152
      ],
      "scale": [
        1.5741959810256958,
        2.1124539375305176,
        2.1057820320129395
      ],
      "translation": [
        -59.31211853027344,
        -133.9998779296875,
        -22.240995407104492
      ]
    },
    {
      "name": "LF_010",
      "rotation": [
        -1.4637378406841223e-19,
        1.357927817707877e-17,
        0.0027949195355176926,
        0.9999961853027344
      ],
      "translation": [
        67.5645751953125,
        -0.00015687942504882813,
        1.52587890625e-05
      ]
    },
    {
      "children": [
        27
      ],
      "name": "RL_011",
      "rotation": [
        0.022205449640750885,
        0.7110294699668884,
        0.6986766457557678,
        0.07612459361553192
      ],
      "scale": [
        0.7451369762420654,
        0.9999189972877502,
        0.9967610239982605
      ],
      "translation": [
        -59.31208801269531,
        134.00010681152344,
        -22.23956298828125
      ]
    },
    {
      "name": "RF_012",
      "rotation": [
        5.450011286711742e-08,
        -1.6034043426316202e-07,
        -0.002794936066493392,
        0.9999961853027344
      ],
      "translation": [
        142.73863220214844,
        0.00032806396484375,
        5.684341886080802e-14
      ]
    }
  ],
  "scene": 0,
  "scenes": [
    {
      "name": "Sketchfab_Scene",
      "nodes": [
        0
      ]
    }
  ],
  "skins": [
    {
      "inverseBindMatrices": 31,
      "joints": [
        4,
        9,
        10,
        11,
        12,
        13,
        20,
        21,
        22,
        23,
        24,
        25,
        26,
        27
      ],
      "skeleton": 4
    }
  ]
}
